# xmcd
#
# Track frame offsets: 
#        183
#        9380
#        22340
#        32685
#        43535
#        57678
#        69323
#        80563
#        95018
#        106365
#        121203
#        133820
#        145580
#        160153
#        170790
#        184585
#        197848
#        210753
#        221390
#        234123
#
# Disc length: 3295 seconds
#
# Revision: 4
# Processed by: cddbd v1.5.2PL0 Copyright (c) Steve Scherf et al.
# Submitted via: ExactAudioCopy v0.99pb5
#
DISCID=140cdd14
DTITLE=FRANKIE LAINE - THE WORLD OF FRANKIE LAINE
DYEAR=2000
DGENRE=Country
TTITLE0=Rawhide
TTITLE1=Moonlight Gambler
TTITLE2=I Believe
TTITLE3=Hummingbird
TTITLE4=Don't Fence Me In
TTITLE5=Strange Lady In Town
TTITLE6=Rose, Rose, I Love You
TTITLE7=There Must Be A Reason
TTITLE8=Answer Me (Mutterlein)
TTITLE9=Jezebel
TTITLE10=High Noon (Do Not Forsake Me)
TTITLE11=Mule Train
TTITLE12=Jealousy (Jalousie)
TTITLE13=Sixteen Tons
TTITLE14=Cool Water
TTITLE15=Wheel Of Fortune
TTITLE16=Rain, Rain, Rain
TTITLE17=A Women In Love
TTITLE18=Granada
TTITLE19=Cry Of The Wild Goose
EXTD=ID3G: 2
EXTT0=
EXTT1=
EXTT2=
EXTT3=
EXTT4=
EXTT5=
EXTT6=
EXTT7=
EXTT8=
EXTT9=
EXTT10=
EXTT11=
EXTT12=
EXTT13=
EXTT14=
EXTT15=
EXTT16=
EXTT17=
EXTT18=
EXTT19=
PLAYORDER=
